[IMG]http://i.imgur.com/0gTwQ.jpg[/IMG]
[code]

Twists.of.Fate.2009.DVDRIP.XVID.AC3-26K
 
http://uk.imdb.com/title/tt1284656/

Plot:
In a world of crime, revenge is inevitable.

Sources - Audio-LIGHT-DVD....Thanks :P
          VIDEO-LIGHT-DVD.....Thanks :P
          Subs-N/A....

Video
ID                                       : 0
Format                                   : MPEG-4 Visual
Format profile                           : Advanced Simple@L5
Format settings, BVOP                    : 2
Format settings, QPel                    : No
Format settings, GMC                     : No warppoints
Format settings, Matrix                  : Default (H.263)
Muxing mode                              : Packed bitstream
Codec ID                                 : XVID
Codec ID/Hint                            : XviD
Duration                                 : 1h 26mn
Bit rate                                 : 2 462 Kbps
Width                                    : 720 pixels
Height                                   : 400 pixels
Display aspect ratio                     : 16:9
Frame rate                               : 23.976 fps
Color space                              : YUV
Chroma subsampling                       : 4:2:0
Bit depth                                : 8 bits
Scan type                                : Progressive
Compression mode                         : Lossy
Bits/(Pixel*Frame)                       : 0.356
Stream size                              : 1.49 GiB (93%)
Writing library                          : XviD 64

Audio
ID                                       : 1
Format                                   : AC-3
Format/Info                              : Audio Coding 3
Codec ID                                 : 2000
Duration                                 : 1h 26mn
Bit rate mode                            : Constant
Bit rate                                 : 192 Kbps
Channel(s)                               : 2 channels
Sampling rate                            : 48.0 KHz
Compression mode                         : Lossy
Stream size                              : 119 MiB (7%)
Alignment                                : Aligned on interleaves
Interleave, duration                     : 5187688 ms (124 380.00 video frames)

Notes -
thanks light for the dvd!.. cropped of the black borders,, resized, ran 2 filters came out really nice.. then 

muxed back the 2 channel audio back to the encode enjoy!

[/code]

Screens:
[IMG]http://i.imgur.com/xz5pm.png[/IMG]
[IMG]http://i.imgur.com/Grz1o.png[/IMG]
[IMG]http://s6.postimage.org/nbk5yzk2p/vlcsnap_2012_12_15_13h06m59s145.png[/IMG]
[IMG]http://s6.postimage.org/6p2lpwr4x/vlcsnap_2012_12_15_13h07m04s198.png[/IMG]
[IMG]http://s6.postimage.org/e6bt54go1/vlcsnap_2012_12_15_13h07m10s5.png[/IMG]

Greetz:
XtremeEncode|CM8|RX|VISION|HDSCENE|xTriLL|DTRG|CRYS|BIDA|RX|REFILL|INSPiRAL|AXED|HOPE|Anonymous|NOIR|

Blackjesus|Gabroo Punjab Deh|UNiQUE|DQ1|RESiSTANCE|HS||LEGION|STN|BOBBYBLUE|LIFT

To all the people who have helped me  you know who you are

Anything to offer email us @: 26k@hushmail.me
<<bullying has to be stopped now!>>